#!OML:ASF \\sashay\E\Suitcase\Project 1\Capture day 1\Session 1\Male1.ASF
:FULLY-SPECIFIED
:DEGREES
216
root -0.236644 17.4496 -30.7466 8.65927 -1.87662 -5.1245
lowerback 4.80938 0.55915 2.53292
upperback 1.85467 0.903035 4.00759
thorax -0.814471 0.44677 2.65286
lowerneck -16.9824 0.538174 -1.11724
upperneck 13.3593 1.4773 -2.78658
head 6.88684 0.396851 -0.56456
rclavicle -3.77691e-015 -1.35174e-014
rhumerus -39.9163 -29.8102 -62.0182
rradius 14.8058
rwrist 3.3669
rhand -16.3169 16.1428
rfingers 7.12502
rthumb 9.89444 -13.6047
lclavicle -3.77691e-015 -1.35174e-014
lhumerus -36.3809 5.42429 86.4108
lradius 34.7994
lwrist -4.67137
lhand -2.88908 41.9359
lfingers 7.12502
lthumb 22.8204 70.6059
rfemur 6.92816 1.78241 31.6905
rtibia -3.81667e-014
rfoot -12.8711 -9.85572
rtoes 15.5885
lfemur -42.0932 -1.71355 -11.3761
ltibia 29.2073
lfoot -14.9276 1.69942
ltoes -6.9098
217
root -0.245612 17.4512 -30.6955 8.81583 -1.94408 -5.04844
lowerback 4.89464 0.548232 2.52793
upperback 1.73326 0.897017 3.87764
thorax -0.984949 0.443444 2.51997
lowerneck -16.6432 0.736789 -1.53008
upperneck 13.0403 1.74908 -2.3169
head 6.72016 0.556524 -0.317151
rclavicle -3.77691e-015 -1.19271e-014
rhumerus -40.1996 -30.3988 -61.6025
rradius 14.5525
rwrist 4.52421
rhand -16.6134 15.7262
rfingers 7.12502
rthumb 9.60834 -14.0347
lclavicle -3.77691e-015 -1.19271e-014
lhumerus -36.6843 5.31677 86.2673
lradius 35.025
lwrist -4.42912
lhand -3.17959 41.3032
lfingers 7.12502
lthumb 22.5416 70.0073
rfemur 6.95072 1.84946 31.6466
rtibia -2.8625e-014
rfoot -13.0847 -9.9579
rtoes 14.7778
lfemur -42.4755 -1.81066 -11.3915
ltibia 28.6664
lfoot -14.7259 2.09725
ltoes -4.39609
218
root -0.249262 17.4575 -30.6239 8.86741 -2.04664 -5.14563
lowerback 4.73676 0.701107 2.41676
upperback 1.82172 1.08419 3.95524
thorax -0.814153 0.537192 2.65454
lowerneck -16.7141 0.57513 -1.35401
upperneck 12.9666 1.51499 -2.4811
head 6.70992 0.438747 -0.423259
rclavicle 9.54166e-015 2.14687e-014
rhumerus -39.8766 -29.4455 -62.3142
rradius 14.8061
rwrist 3.01807
rhand -16.7711 16.0959
rfingers 7.12502
rthumb 9.45621 -13.6719
lclavicle 9.54166e-015 2.14687e-014
lhumerus -36.4614 5.44771 86.3514
lradius 34.8126
lwrist -4.58849
lhand -2.917 42.2082
lfingers 7.12502
lthumb 22.7936 70.8815
rfemur 7.15893 1.95597 31.7398
rtibia -4.77083e-014
rfoot -13.1056 -9.95639
rtoes 13.8166
lfemur -42.5301 -1.74793 -11.4003
ltibia 28.018
lfoot -14.6379 2.22371
ltoes -9.37856
219
root -0.257625 17.4455 -30.5626 8.88225 -1.87196 -5.42306
lowerback 4.69896 0.664204 2.60957
upperback 1.95091 1.03648 4.08655
thorax -0.657483 0.514003 2.68625
lowerneck -17.0628 0.558465 -1.17801
upperneck 13.1062 1.54233 -2.95733
head 6.82052 0.412748 -0.602727
rclavicle 1.98785e-016 -2.3059e-014
rhumerus -39.716 -30.5315 -61.6674
rradius 14.4704
rwrist 4.04984
rhand -16.6674 15.7798
rfingers 7.12502
rthumb 9.55623 -13.9835
lclavicle 1.98785e-016 -2.3059e-014
lhumerus -36.1932 5.67885 86.3407
lradius 34.7394
lwrist -4.63775
lhand -2.70488 40.7568
lfingers 7.12502
lthumb 22.9972 69.4049
rfemur 7.36266 1.80855 32.117
rtibia 3.18055e-015
rfoot -13.0511 -10.0454
rtoes 13.7725
lfemur -42.7738 -1.50918 -11.3399
ltibia 27.4574
lfoot -14.5237 2.37113
ltoes -10.5738
220
root -0.26721 17.4544 -30.4961 8.96172 -2.09496 -5.22886
lowerback 4.70589 0.817814 2.18651
upperback 1.8788 1.22659 4.06306
thorax -0.749511 0.607633 2.88885
lowerneck -16.6029 0.495018 -1.28965
upperneck 12.7763 1.46098 -2.95575
head 6.63488 0.377773 -0.592699
rclavicle 1.61016e-014 -1.27222e-014
rhumerus -39.5279 -29.6675 -62.2558
rradius 14.6602
rwrist 2.86818
rhand -16.5933 15.5764
rfingers 7.12502
rthumb 9.62779 -14.1836
lclavicle 1.61016e-014 -1.27222e-014
lhumerus -36.4661 5.54381 86.4401
lradius 34.8985
lwrist -4.53911
lhand -2.66608 41.904
lfingers 7.12502
lthumb 23.0344 70.5475
rfemur 7.55113 1.99725 31.8732
rtibia -2.8625e-014
rfoot -13.3599 -10.0236
rtoes 14.1601
lfemur -42.9573 -1.2088 -11.7694
ltibia 27.0693
lfoot -14.8403 2.10632
ltoes -8.48315
221
root -0.285117 17.4492 -30.4371 8.89939 -2.3522 -5.59812
lowerback 4.871 0.954266 2.20943
upperback 2.01036 1.41218 4.20113
thorax -0.71549 0.699762 3.0079
lowerneck -16.9579 0.464102 -0.910316
upperneck 12.9029 1.40843 -3.36522
head 6.74117 0.329571 -0.792316
rclavicle 1.49089e-014 3.73715e-014
rhumerus -39.5715 -31.5361 -60.9952
rradius 13.9302
rwrist 4.95061
rhand -16.4083 15.8215
rfingers 7.12502
rthumb 9.80628 -13.9302
lclavicle 1.49089e-014 3.73715e-014
lhumerus -36.0701 5.70272 86.4505
lradius 34.5424
lwrist -4.84835
lhand -3.00062 41.597
lfingers 7.12502
lthumb 22.7134 70.2801
rfemur 7.87367 2.26213 32.3038
rtibia -5.725e-014
rfoot -13.2823 -9.98407
rtoes 14.2275
lfemur -42.9966 -1.23058 -11.2584
ltibia 26.709
lfoot -14.8291 2.74819
ltoes -9.5159
222
root -0.286124 17.4497 -30.371 8.89504 -2.32449 -5.5019
lowerback 4.96289 0.995495 2.08637
upperback 1.97026 1.4679 4.18347
thorax -0.812787 0.727292 3.0537
lowerneck -16.7012 0.448642 -0.854035
upperneck 12.693 1.38638 -3.5192
head 6.63166 0.314185 -0.852951
rclavicle 1.47101e-014 -2.38542e-015
rhumerus -39.2412 -29.5395 -62.4189
rradius 14.5867
rwrist 2.90726
rhand -17.0312 15.4878
rfingers 7.12502
rthumb 9.20527 -14.2912
lclavicle 1.47101e-014 -2.38542e-015
lhumerus -36.3172 5.51296 86.5787
lradius 34.8245
lwrist -4.42431
lhand -3.12968 41.4116
lfingers 7.12502
lthumb 22.5895 70.1099
rfemur 8.08471 2.20137 32.2509
rtibia -2.8625e-014
rfoot -12.9991 -10.3581
rtoes 11.1314
lfemur -43.102 -1.10845 -11.595
ltibia 26.3895
lfoot -14.7959 2.79342
ltoes -10.455
223
root -0.283971 17.4406 -30.2949 8.99773 -2.47518 -5.93178
lowerback 4.713 1.11891 2.46642
upperback 2.13469 1.62909 4.30702
thorax -0.502894 0.809129 2.96615
lowerneck -16.952 0.391128 -1.2583
upperneck 12.617 1.35459 -3.18972
head 6.6437 0.306781 -0.684144
rclavicle -6.36111e-015 8.74653e-015
rhumerus -39.2014 -31.7741 -60.9549
rradius 13.6095
rwrist 5.13695
rhand -16.9792 15.6923
rfingers 7.12502
rthumb 9.25543 -14.0846
lclavicle -6.36111e-015 8.74653e-015
lhumerus -35.9277 5.58043 86.6059
lradius 34.6517
lwrist -4.63539
lhand -3.07804 41.5176
lfingers 7.12502
lthumb 22.6391 70.2099
rfemur 8.34223 2.41547 32.6234
rtibia -6.36111e-015
rfoot -13.369 -10.0017
rtoes 12.7968
lfemur -43.2514 -1.11482 -11.1754
ltibia 26.0024
lfoot -14.8993 3.4959
ltoes -11.7642
224
root -0.286162 17.4406 -30.2286 9.0646 -2.5746 -5.80722
lowerback 4.87162 1.19767 2.2476
upperback 1.96468 1.74106 4.25704
thorax -0.775413 0.864176 3.02568
lowerneck -16.7594 0.426344 -1.41554
upperneck 12.4538 1.38878 -2.94016
head 6.55567 0.342171 -0.574284
rclavicle -4.57205e-015 2.38542e-015
rhumerus -39.0341 -29.8493 -62.2388
rradius 14.3565
rwrist 2.89262
rhand -16.9153 15.2831
rfingers 7.12502
rthumb 9.3171 -14.491
lclavicle -4.57205e-015 2.38542e-015
lhumerus -36.3856 5.64025 86.5539
lradius 34.8573
lwrist -4.78481
lhand -2.81219 42.2243
lfingers 7.12502
lthumb 22.8942 70.8852
rfemur 8.46178 2.4918 32.4793
rtibia 6.36111e-015
rfoot -13.2982 -10.2264
rtoes 11.0902
lfemur -43.3474 -1.37433 -11.2215
ltibia 25.7338
lfoot -14.8254 4.04009
ltoes -10.7129
225
root -0.287305 17.4348 -30.1489 9.07861 -2.77522 -5.84618
lowerback 4.69329 1.32786 2.19694
upperback 2.12943 1.89462 4.21863
thorax -0.512325 0.940963 3.01243
lowerneck -16.6473 0.437296 -0.880545
upperneck 11.976 1.34894 -3.51231
head 6.39094 0.308056 -0.848345
rclavicle -2.127e-014 -3.33958e-014
rhumerus -39.0314 -31.2672 -61.4519
rradius 13.8418
rwrist 3.92018
rhand -16.7958 15.1857
rfingers 7.12502
rthumb 9.43236 -14.5832
lclavicle -2.127e-014 -3.33958e-014
lhumerus -36.0672 5.54876 86.5511
lradius 34.809
lwrist -4.50648
lhand -3.10565 41.7607
lfingers 7.12502
lthumb 22.6126 70.4562
rfemur 8.85285 2.67744 32.4816
rtibia -2.8625e-014
rfoot -13.4656 -10.0145
rtoes 11.7037
lfemur -43.3768 -1.48671 -11.2095
ltibia 25.4066
lfoot -14.5883 4.85012
ltoes -11.7981
226
root -0.292047 17.4401 -30.0923 9.10784 -2.62838 -5.91009
lowerback 4.97167 1.31298 2.17456
upperback 2.04561 1.89241 4.27456
thorax -0.756439 0.939401 3.07533
lowerneck -17.0026 0.486508 -1.4211
upperneck 12.5031 1.50888 -3.11947
head 6.61547 0.380855 -0.61861
rclavicle -7.95139e-015 2.22639e-014
rhumerus -38.9633 -31.256 -61.408
rradius 13.8207
rwrist 3.97365
rhand -16.9051 15.3713
rfingers 7.12502
rthumb 9.3269 -14.4024
lclavicle -7.95139e-015 2.22639e-014
lhumerus -36.2327 5.62578 86.5505
lradius 34.9487
lwrist -4.65519
lhand -2.60091 41.3748
lfingers 7.12502
lthumb 23.0969 70.0104
rfemur 9.00834 2.53312 32.5874
rtibia 2.54444e-014
rfoot -13.4096 -10.2303
rtoes 11.7782
lfemur -43.3987 -1.68118 -11.1473
ltibia 25.2144
lfoot -14.5478 4.64093
ltoes -11.4748
227
root -0.290936 17.4217 -30.0095 9.11397 -2.76766 -5.96854
lowerback 4.92377 1.38127 2.2334
upperback 2.11972 1.97917 4.22713
thorax -0.653064 0.983066 2.99049
lowerneck -17.1375 0.550536 -1.44584
upperneck 12.5077 1.58625 -3.00298
head 6.63881 0.425896 -0.568697
rclavicle 8.15017e-015 3.97569e-015
rhumerus -38.8026 -31.5043 -61.4563
rradius 13.7653
rwrist 3.75905
rhand -17.0455 15.132
rfingers 7.12502
rthumb 9.19147 -14.6476
lclavicle 8.15017e-015 3.97569e-015
lhumerus -36.0977 5.68179 86.4364
lradius 34.8015
lwrist -4.74061
lhand -3.11179 40.9601
lfingers 7.12502
lthumb 22.6067 69.6563
rfemur 9.32996 2.6611 32.615
rtibia -1.27222e-014
rfoot -13.4568 -10.2959
rtoes 11.582
lfemur -43.4372 -1.52603 -11.2994
ltibia 25.0258
lfoot -14.967 4.81659
ltoes -8.79243
